<svg xmlns="http://www.w3.org/2000/svg" fill="currentColor" viewBox="0 0 1705 1515"><path d="M444.5 193.1c-23.1 3.2-42.7 13-58.1 29.2-8.4 8.8-13.1 15.9-17.1 25.7-5.5 13.7-5.2 1.3-5.3 246-.1 201.9.1 227.3 1.4 233.8 2.3 10.6 6.1 19.5 12.2 28.8 12.2 18.6 31.8 31.6 58.2 38.7l11.7 3.2 147.6-.4 147.5-.3 46 49.5c34.2 37 47 50.1 50.4 51.9 3.7 1.9 6.1 2.3 13 2.3 7.6 0 9.1-.3 13.9-3 2.9-1.6 6.7-4.6 8.5-6.6 1.7-2 21.8-24 44.6-48.8l41.5-45.1H992c17.3 0 88.7-.5 158.5-1.1 140.5-1.1 134.7-.8 149-7.8 18.6-9 33.1-26.2 41.1-48.7 6.9-19.2 6.5-2 6.2-249.9l-.3-224-2.8-9c-5.9-19.1-13.3-31.2-26.7-43.8-9.4-8.9-21.5-15.4-34.5-18.8-8-2-8.5-2-419.5-2.4-261.8-.3-414-.1-418.5.6m830.5 40.6c13.6 3.7 25.4 16 30.1 31.3 1.9 6.4 1.9 9.9 1.7 233l-.3 226.5-3.2 6.8c-5.9 12.3-17.5 21.4-33.9 26.3-5.5 1.7-15.8 1.9-166.7 2.4l-160.7.5-44.1 47.5c-24.3 26.1-44.5 47.6-44.9 47.8-.4.1-19.5-19.4-42.5-43.5s-43.8-45.8-46.2-48.3l-4.3-4.5-160.3-.5-160.2-.5-7.9-3.8c-13.7-6.5-24-19.6-27.1-34.4-2.2-10.5-2.2-440.8 0-450.2 4.5-19.1 21.9-35.5 40-37.9 3.3-.5 190.3-.6 415.5-.4 360.7.3 410.2.5 415 1.9"/><path d="M528.8 353.6c-3.3 1.7-8 8.5-9.8 13.8-2.5 7.8 1.1 15.2 9.9 19.9l4.9 2.7h323.6c273.4 0 324.2-.2 326.9-1.4 3.9-1.7 10.2-8.1 11.6-11.9 2.4-6.3.7-12.2-5.3-18.5-1.7-1.9-4.3-4-5.8-4.8-4.2-2.2-652-2-656 .2m1.7 135.6c-5.1 1.8-8.2 4.6-10.5 9.4-4.4 9.1-.4 20.1 9.1 25.1l4.2 2.3h322.1c224 0 323.3-.3 325.9-1.1 7-1.9 15.7-12 15.7-18.1-.1-3.7-3.4-10.1-7.7-14.6l-4-4.2-325.9.1c-227.5 0-326.8.4-328.9 1.1m-.5 133.9c-5.6 2.5-7.7 4.4-10.1 9.1-3.5 6.9-2 13.7 4.5 20.6 1.7 1.9 4.3 4 5.8 4.8 2.3 1.2 38.3 1.4 246.6 1.4h243.8l5.1-2.5c8-4 13.2-13 11.3-19.6-1.5-5.2-6-11.9-9.3-14-3.1-1.9-7.7-1.9-248.2-1.9-244.2 0-245 .1-249.5 2.1M362.6 950.6c-9.8 1.8-26.3 7.2-34.8 11.5-24.8 12.4-46.1 33.8-57.9 58.4-8.7 18.2-12.3 34.4-12.2 55 .1 25.9 7.8 49.7 23.2 71.5 4.7 6.7 21.1 23.8 26.9 28.1l3.2 2.5-12.2 6.2c-37 18.6-68 46.8-88.5 80.4-16.3 26.7-25.9 57.2-28.5 90.3-1.2 15.8-.2 25.3 3.5 32.7 2.8 5.5 6.3 7.4 16 8.7 11.3 1.6 370.6 1.5 377.9 0 7.4-1.6 13-7.2 15.3-15.4 1.5-5 1.7-8.3 1.1-19-2.9-61.1-31.7-115.6-80.9-153.7-14.3-11-29.6-19.8-52.5-30.4l-4.4-2 7.1-5.9c16.9-14.1 31-34.3 38.5-55.3 9-25.2 9.2-54.1.7-79.4-15-44.3-52.2-76.3-97.8-84.3-10.7-1.9-33.1-1.8-43.7.1m43.3 39.4c16.6 4.2 36.3 16.8 47.1 30.3 6.2 7.7 13.1 20.8 16.2 30.7 2 6.6 2.3 9.5 2.3 23.5 0 15.5-.2 16.3-3.3 25.5-4.1 11.7-8.5 19.7-16.2 29.5-8.1 10.2-17.6 17.7-29.6 23.6-14 6.9-25.7 9.3-41.4 8.6-22.5-1.1-41.6-9.5-58.3-25.6-12.2-11.7-20.3-25.2-24.3-40.6-2.4-9.3-2.5-32-.1-41.7 11.5-46.7 60.2-75.6 107.6-63.8m13.5 213.9c36.3 7.3 71.3 27.5 95.3 55 23.5 26.8 37.8 58.9 41.8 93.3l.6 5.8H218.9l.6-4.8c2.9-22.1 7.7-38.5 16.5-56.7 24.8-51.2 73.6-87.1 128.5-94.4 12.3-1.7 42.5-.7 54.9 1.8m404.5-253.3c-39.4 7.1-74.2 33.1-92.2 68.9-14.1 28.2-16.6 64-6.6 94 7.6 22.8 23.6 45.8 41.4 59.5 5.4 4.1 6.7 6 4.3 6-.6 0-7 2.9-14.2 6.4-36.6 17.8-67.4 45.7-87.6 79.1-18.1 30-28 65.9-28 101.9 0 12.2.2 13.6 2.5 18.3 2.8 5.5 7 9.3 12.4 11.1 2.5.9 50.7 1.2 191.1 1.2 209.2 0 195 .5 201-6.8 1.7-2 3.7-5.9 4.5-8.6 1.9-6.5 1.9-23.2 0-37.8-9.1-69.3-52.6-127.9-118.9-160.5l-13.6-6.7 9.8-10c11.2-11.6 17.3-19.2 23.8-30.2 24-40.6 22.9-90.9-2.8-130.1-19.5-29.6-50.2-49.6-85.4-55.8-10.6-1.8-31.2-1.8-41.5.1m48.3 41.4c30 10.1 52.7 35.9 58.5 66.4 2.1 10.8 1.3 29.3-1.6 39.4-8.5 29.3-31.9 53.1-60.3 61.3-10.5 3-28.8 3.7-39.9 1.4-35.2-7.1-65.5-37.9-70.8-72.2-5.9-37.9 13.3-74.1 48.4-91.5 14.7-7.3 21.8-8.8 41-8.4 13.9.3 15.7.5 24.7 3.6m-6.2 209c21.7 2.3 54.4 15.5 76.9 31 30.4 20.9 53.1 50.9 64.6 85.2 3.7 11.1 6.9 25.1 8.1 35l.7 5.8H678.8l.7-6.8c5.8-57.2 42-107.8 95.9-133.7 28.6-13.7 61.4-19.7 90.6-16.5m431-251.3c-42.8 6.5-77.8 30.8-96.9 67.3-18.6 35.5-19.1 77.2-1.3 112.5 7.5 15.1 20 30.8 32.8 41.6 7.1 5.9 8.7 7.9 6.3 7.9-.6 0-6.1 2.4-12.2 5.3-54.9 26.1-94.6 73.2-109.6 129.8-4.9 18.2-6.4 29.6-6.5 48.4-.1 16 0 17.3 2.3 21.8 3 6.1 8.2 10.3 14.3 11.7 7.1 1.5 368.8 1.4 376-.1 6.8-1.5 14.3-5.3 16.3-8.3 4-6 5.4-22.7 3.5-40.1-5.9-52.9-31-98.8-73.5-134.3-15.3-12.8-39.7-27.8-55.7-34.2l-5.7-2.3 11.2-10.8c27.4-26.1 40.8-56.2 40.8-91.9 0-15.1-1.9-26.2-6.7-40.1-15-43.6-52.5-75.4-98.1-83.4-7.8-1.4-30.6-1.9-37.3-.8m24.5 38.3c38.6 4.3 70.6 33 78 69.9 2.1 10.1 1.6 28.4-.9 37.6-4.1 14.9-14.3 31.3-26.9 43.1-9.8 9.2-20.2 15.4-32.7 19.6-9.1 3.1-10.2 3.2-25.5 3.3-18.3 0-23.9-1.1-37.3-7.5-10.6-5-16.1-8.8-24.6-16.9-25.2-24.2-33.8-59.5-22.3-91.5 11.4-31.2 40.8-54.1 74.2-57.6 3.9-.4 7.5-.8 8-.9.6 0 5.1.4 10 .9m28.8 215.9c51.9 13.4 94.7 47.2 117.7 93.1 8.3 16.5 14.7 37.5 16.6 54.7l.7 6.3h-338.6l.7-6.3c7.4-67.1 54.4-123.7 119.3-143.6 19.9-6.1 35.6-8.2 57.4-7.5 12.1.3 16.7.9 26.2 3.3"/></svg>