<svg xmlns="http://www.w3.org/2000/svg" fill="currentColor" viewBox="0 0 1705 1515"><path d="M796 122.6c-1.4.2-5.6.9-9.5 1.5-37.6 6-74.4 32.8-92.8 67.7-28.3 53.7-14.3 120.7 33 158.4l6.5 5.1-12.1 6.3c-53.8 27.7-90.7 73.6-104.9 130-5.3 20.8-6.5 31.6-6.6 55.6V569l-52.6.1c-28.9.1-66.7.4-84 .8l-31.5.6-5.8 2.9c-11.5 5.5-21 18.4-23.6 31.6-.7 3.8-.8 22.9-.3 60.5l.7 55 3.3 6.7c5.7 11.6 16.9 19.6 33.6 23.8 4.4 1.1 10.3 2 13.2 2 4.7 0 5.4.3 5.9 2.3.3 1.2 8.8 45.1 19 97.6 20.8 108.1 18.3 99.2 31 108.9 8.4 6.3 16.9 9.8 20.1 8.3 3-1.3 6.7-9.5 7.1-15.5.3-3.6-5.1-33.8-18.5-103.1l-18.8-98 338-.3c185.8-.1 338.1-.1 338.2.1.3.3-38.8 215.3-40.1 220.5-.6 2.3-.4 2.3 4.2 1.6 6.9-1 14.9-3.9 20.4-7.4 6.7-4.3 14.6-13.1 17.4-19.2 1.7-3.8 7.3-31.9 20-100.3 9.8-52.3 17.8-95.1 18-95.3.1-.1 4.2-.4 9.1-.6 24.6-1.1 41.2-14.6 45.3-37.1 1.1-5.8-.2-111.1-1.5-118.5-1.4-8.2-8.2-16.2-17.4-20.4-9.1-4.1-16.8-5.7-30.6-6.3l-13.1-.6-.7-69.1c-.7-64.3-.9-69.7-2.7-77.1-2.5-10.1-9.3-24.1-15.7-32.5-9.9-13.1-28-28.2-44.9-37.6-5.1-2.8-5.2-2.9-5.8-8.4-1.6-15.2-7.4-28.6-16.7-38.6-6.3-6.6-16.4-14-23.3-16.8-2.2-1-6.7-3.5-10-5.6-20.4-13.3-43.7-11.2-60 5.4-9.8 10-14.5 21.5-14.5 35.6 0 13.5 3.8 22.8 12.7 31.1 6.6 6.1 50.5 28.8 57.4 29.6 5.9.7 15.2-1 23.7-4.4 6.1-2.5 6.4-2.5 10.5-.9 7 2.6 21.7 12.8 28.8 19.7 7.4 7.4 13.6 16.1 18 25.2l2.9 6.2V569h-59.7c-32.9 0-71.5.3-85.8.7l-26 .6.3-19.9c.5-29.2-2.2-48.3-10.3-72.9-9.2-28-21.7-49.5-42-72.1-16-17.8-43.7-37.3-67.5-47.3l-5.4-2.3 2.9-2.1c6-4.2 21.9-20.4 28-28.6 10.9-14.4 19.1-32.9 23.2-52.1 2.5-11.7 2.5-35.3 0-47-10.9-50.9-49-89.6-99.7-101.1-8.1-1.8-32.3-3.3-38-2.3m30.9 41.4c26.8 5.5 50.6 25.1 61.8 51 5.2 12.2 6.5 18.3 7 33.5.4 11.8.2 15.4-1.6 22.7-7.6 32.1-33.4 58-66.8 67-10.6 2.8-30.8 3-40.8.4-9.2-2.4-22.1-8.5-29.9-14-7.8-5.6-21.1-19.6-25.4-26.9-10-16.6-13.7-31.4-12.9-50.6.6-14.4 2.8-23.3 8.4-34.4 9.9-19.7 22.7-32.6 41.8-41.9 17.6-8.6 38.3-11 58.4-6.8m4.6 217.5c24.9 3.9 50.8 15.1 72.3 31.3 29.2 22 51.4 57.8 59.2 95.7 2.9 14.2 4.4 35.8 3.4 49l-.9 11-85 .6c-46.7.3-117.5.7-157.1.8l-72.1.1-.7-3.2c-3.3-16.7-2.7-42 1.5-61.5 12.3-57 55.8-103.4 112.1-119.7 22.2-6.4 43.7-7.7 67.3-4.1m409.5 279V714H449.7l.6-13.7c.4-7.5.7-31.5.7-53.5V607h790zm42 292.5c-43.8 4.5-80.7 29.5-99.9 67.8-9.1 18.2-13.1 35.4-13.1 56.9 0 38.6 16.6 72.2 47.1 95.3l7.6 5.7-8.6 3.8c-64.4 28.7-109.4 87.2-119.7 155.8-1 6.5-1.8 17.8-1.8 26.7-.1 14.3.1 15.9 2.2 20.2 2.8 5.7 7 9.4 12.2 10.8 2.6.7 63.9.9 191.2.8l187.3-.3 4.2-2.2c8.1-4.4 13.3-14.5 13.3-26.1 0-9.6-2.6-29.7-5.6-43.2-10.7-47.9-35.8-87.3-73.9-115.9-13.2-10-24.1-16.5-41.3-24.9l-15.3-7.4 9.9-9.4c15.7-14.8 26.5-30.4 33.3-47.9 18-46.5 7.7-93.9-28.5-130.1-14.2-14.1-28.4-23.3-46.4-29.8-15.4-5.5-38.1-8.3-54.2-6.6m27.1 39.6c32.7 6.1 59.9 31 69.1 63 3.2 11.2 3.2 30.5 0 41.7-9 31.2-33.9 55.8-64.7 63.7-9.9 2.6-26.8 2.9-37.1.7-23.6-5.1-47-22.2-58.8-43-26-45.8-4.4-104.3 45.2-122.4 14.4-5.3 30.9-6.6 46.3-3.7m13.9 210.9c75 12.1 134.4 74.3 142.4 149.2l.5 5.3h-335l.6-5.3c.4-2.8 1.5-10 2.6-16 12.4-67.8 69.3-122.2 139.4-133.2 11.5-1.9 38-1.8 49.5 0M384.1 954.6c-43.7 7.3-82.6 40.4-96.4 82.2-10.3 30.8-8.8 61.6 4.4 91 6.6 14.7 22.3 34.6 35.8 45.4l4.4 3.5-6.4 2.9c-34.1 15.1-63.5 37.8-85.5 65.9-26.2 33.7-41.4 77.8-41.4 120.6 0 17.7 4.3 27.2 13.5 29.8 2.9.8 57 1.1 189.8 1.1h185.8l4.8-2.5c6-3 10.5-8.3 12.1-14.2 1.6-5.6.8-29.7-1.5-43.3-11.5-68.9-55.4-125.8-119.2-154.6l-9.4-4.2 6.4-5c18.2-14.5 33.9-36.8 41.2-58.6 5-14.8 5.9-21 5.8-39.6 0-15.6-.3-18.6-2.5-27.1-3.3-12.1-7.7-23.2-12.7-31.8-26.6-45.5-78-70-129-61.5m36.2 37.8c16.8 3.3 31.1 11.1 44.8 24.6 24.5 24.2 32 55.6 21 87.7-4.6 13.5-10.4 22.6-21.1 33.3-10.8 10.7-19.8 16.4-33.8 21.3-7.5 2.6-10.5 3.1-21.7 3.5-16.5.5-26.5-1.6-41.1-8.8-23-11.4-40-32.1-46.5-56.5-2.5-9.6-3.1-28.7-1-38 4.5-20.4 17.5-40.6 33.6-52 10.9-7.7 25.1-13.7 37.5-15.8 5.9-1 21.4-.6 28.3.7m12.3 212c44.7 9.3 83.6 35.7 108.2 73.4 7 10.7 16.2 30.2 20.1 42.3 2.8 8.9 6 23.4 7.5 33.6l.6 4.3H403c-132.1 0-166-.3-166-1.3.1-4.5 3.2-23.6 5-30.7 9.9-38.8 35.2-73.6 70.2-96.4 18.2-11.9 41.4-21.4 64.1-26.2 10-2.2 13-2.4 27.7-1.9 12.3.3 19.6 1.1 28.6 2.9"/><path d="M824.4 954.5c-48.8 8.6-89.7 47.5-101 96.3-3.9 16.7-3.5 38.1 1 55.3 7.4 28.4 22.9 51.2 47.6 70l3.5 2.7-4.5 1.8c-8.7 3.5-21.7 10.2-30.9 15.9-51.4 31.8-84.8 81.5-94.6 140.5-2.2 13.5-3.1 38.3-1.5 44 1.6 5.8 8.9 13.3 14.5 14.9 2.9.8 56.8 1.1 189.1 1.1 200.8 0 190.4.3 197.8-5.4 1.9-1.4 4.6-4.9 6-7.8 2.4-4.8 2.6-6.2 2.6-17.8 0-29.2-6.6-57.6-19.9-85.3-20.5-42.6-60.2-80.1-105.3-99.3l-9.8-4.1 7.3-6.2c17.8-15.2 31.4-35.5 38.5-57.6 4.7-14.5 5.7-21.5 5.7-39.5-.1-14.4-.4-17.9-2.7-27-11.3-45.3-44.6-78.6-90.6-90.7-8.2-2.2-12.3-2.6-27.2-2.9-12-.2-20 .1-25.6 1.1m34.1 37.5c28.4 4.1 53.6 22.6 66.1 48.5 6.6 13.6 7.9 19.6 7.8 36 0 16.3-1.3 22.3-7.8 36-10.4 21.9-29.2 38.6-52.4 46.6-9.5 3.3-10 3.4-26.2 3.4-16 0-16.8-.1-26-3.3-28.9-10-51.2-32.9-58.7-60.2-2.5-9.3-2.5-35.8 0-45 6.1-22.4 23.5-43 45.2-53.5 17.2-8.4 33.7-11.1 52-8.5m11.5 211.4c76 10.2 137.6 73.2 146.4 149.8l.6 4.8H682v-4.3c0-9.9 4.4-30.1 9.7-44.2C718 1239 794.6 1193.4 870 1203.4"/></svg>