<svg xmlns="http://www.w3.org/2000/svg" fill="currentColor" viewBox="0 0 1609 1515"><path d="m639.304 183.911 3.9.008q5.31.012 10.62.035c3.833.015 7.666.023 11.5.033q11.262.03 22.524.071 9.195.033 18.39.06l2.656.008 5.345.016q23.637.071 47.273.155 22.75.08 45.5.145a115859 115859 0 0 1 55.13.172l2.663.009q9.11.03 18.22.056c20.258.059 40.516.146 60.774.292q4.18.03 8.36.054c7.728.045 15.455.11 23.182.207q3.42.04 6.842.059c25.288.155 44.638 6.716 62.817 24.709 14.043 14.806 22.143 34.004 22.151 54.393l.013 2.486q.018 4.114.025 8.228l.026 5.94q.027 6.424.045 12.85.032 10.33.076 20.66.06 14.769.11 29.539c.084 24.218.184 48.436.284 72.654l.047 11.459a34553 34553 0 0 0 .82 137.08q.192 24.855.403 49.711l1.844-1.864 2.433-2.45 2.406-2.427c2.934-2.86 5.998-5.367 9.317-7.759l1.917-1.385c12.347-8.7 25.678-14.712 40.083-19.115l3.137-.96c11.411-3.146 23.248-4.202 35.05-4.227l2.274-.005c4.77.043 9.312.578 14.039 1.255 3.86.31 5.77.383 9.094-1.649a108 108 0 0 0 4.808-4.746c13.572-13.939 33.094-22.673 51.598-27.668l1.979-.54c33.376-8.575 69.735-.7 99.271 15.915 33.211 20.16 56.029 51.223 65.312 88.904 2.388 10.527 3.767 21.248 3.184 32.045-1.017 11.425-1.017 11.425 2.195 22.047 2.565 2.26 5.097 3.936 8.059 5.629a107 107 0 0 1 4.125 3.563l1.95 1.707c15.846 14.24 28.123 31.922 37.925 50.73l.957 1.83c10.932 21.27 18.112 45.884 18.246 69.885l.017 2.467q.015 2.574.02 5.15c.01 2.568.04 5.134.073 7.701.094 14.598-1.883 28.307-6 42.342l-.775 2.654c-6.38 21.131-16.483 42.15-29.538 59.971l-2.293 3.152c-6.028 8.13-12.707 15.55-19.707 22.848l-2.715 2.875c-36.663 37.902-87.604 56.818-139.285 61.125h-26l-1 163 40.188-.105q12.591-.024 25.183-.041c13.328-.018 26.657-.04 39.985-.08q14.56-.046 29.12-.056 7.71-.004 15.417-.035 7.259-.03 14.518-.022 2.66-.001 5.32-.019c2.429-.015 4.856-.01 7.284-.003l2.11-.026c6.432.058 11.732 1.625 16.688 5.7 5.405 6.64 6.017 12.306 5.187 20.687-1.942 5.935-5.9 9.368-11.375 12.25-6.485 1.853-13.125 1.895-19.816 1.876l-2.72.005c-3.013.004-6.026 0-9.038-.002l-6.57.005q-9.062.006-18.126 0-8.83 0-17.66.006-18.285.008-36.568.006-18.53-.002-37.061.004h-2.364l-9.53.003a344814 344814 0 0 1-110.156.014h-2.683q-29.427.001-58.854.005l-24.228.003h-2.704a1156727 1156727 0 0 1-202.425.01 765642 765642 0 0 0-229.123.031h-2.869a515419 515419 0 0 1-150.542.013h-26.934q-42.774 0-85.55.014a162181 162181 0 0 1-98.039.002l-2.355-.001q-18.483-.003-36.964.01-18.162.01-36.325-.002-9.72-.008-19.44.003-8.835.011-17.671-.003-3.184-.003-6.367.005c-2.876.007-5.751.001-8.627-.007l-2.486.014c-8.107-.05-15.38-1.014-21.83-6.264-4.903-5.433-5.422-9.784-5.336-16.922.51-4.675 2.087-7.712 5.336-11.078 6.223-4.93 11.199-6.118 19.087-6.158l2.163-.015c2.392-.016 4.785-.024 7.177-.032l5.144-.03q6.986-.04 13.97-.068 7.299-.035 14.598-.076 13.822-.074 27.646-.138 15.735-.076 31.472-.16 32.371-.17 64.743-.323l-6.048-10.098q-1.523-2.54-3.043-5.081a1472 1472 0 0 0-12.471-20.446l-1.688-2.715-1.516-2.437a1954 1954 0 0 1-10.046-16.41A4425 4425 0 0 0 283 1124a4434 4434 0 0 1-15.187-24.812q-6.605-10.876-13.313-21.688a3081 3081 0 0 1-13.562-22.062l-1.567-2.57q-1.673-2.752-3.333-5.51a695 695 0 0 0-4.646-7.539c-8.407-13.586-15.569-27.718-22.613-42.044a4935 4935 0 0 0-6.345-12.831q-1.675-3.382-3.34-6.766a773 773 0 0 0-9.853-19.215c-5.39-10.191-10.602-20.468-15.78-30.768l-1.446-2.876q-3.782-7.524-7.556-15.05a5138 5138 0 0 0-6.179-12.276q-3.794-7.515-7.562-15.044-1.417-2.823-2.844-5.642C134.232 850.352 125.141 822.767 120 793l-.407-2.299c-5.389-31.986-1.776-66.599 6.407-97.701l.667-2.557C130.228 677.09 135.21 664.535 141 652l.992-2.155C158.078 615.33 182.789 583.333 213 560l2.898-2.344c31.23-24.857 68.453-41.137 107.352-49.406l2.828-.603c15.451-3.127 30.513-4.054 46.235-4.022h2.924c15.9.035 31.17 1.028 46.763 4.375l2.758.583A254 254 0 0 1 442 513l2.225.647C492.757 528.088 538.36 559.542 569 600l1.226 1.584c34.717 44.957 54.006 98.502 54.212 155.291l.019 2.707c.074 16.867-1.615 33.583-5.707 49.98l-.645 2.612C612.971 832.284 604.443 851.11 596 870l-.92 2.062a1857 1857 0 0 1-25.608 54.893 838 838 0 0 0-4.058 8.53c-11.785 25.064-24.569 49.695-37.988 73.92a885 885 0 0 0-4.551 8.411 964 964 0 0 1-18.853 33.601 685 685 0 0 0-10.084 17.708c-5.74 10.433-11.834 20.652-17.938 30.875l-1.786 2.998c-16.911 28.368-34.306 56.444-52.008 84.326-4.133 6.521-8.158 13.098-12.206 19.676h620l-1-39a2185 2185 0 0 1-.078-24.967l.009-6.634q.008-6.99.023-13.98c.013-7.382.011-14.765.005-22.148l-.002-3.815-.01-11.585c-.013-15.825-.014-31.65.029-47.475q.048-17.479.005-34.958c-.014-6.134-.015-12.267.02-18.401q.045-8.617-.008-17.233-.01-3.147.025-6.292c.132-13.068-.995-21.022-9.018-31.512-1.854-3.33-3.506-6.737-5.125-10.187l-1.276-2.713c-19.176-41.646-20.069-88.552-4.74-131.522 2.807-7.514 6.228-14.585 10.141-21.578l1.113-2.01c6.374-11.477 6.374-11.477 7.887-12.99.11-1.935.147-3.873.158-5.811l.03-3.863.017-4.311.03-4.552q.04-6.325.068-12.652.029-5.487.06-10.973c.071-12.281.129-24.562.185-36.843l.061-12.925c.387-80.247.527-160.495.568-240.744q.01-16.473.029-32.948.026-21.429.024-42.858-.003-10.453.012-20.906.014-9.652.002-19.306 0-3.502.008-7.005c.282-28.407.282-28.407-12.178-53.307-8.823-8.49-21.093-14.117-33.348-14.125l-3.932-.01-4.33.005-4.593-.007a7287 7287 0 0 0-12.639-.004c-4.541 0-9.082-.006-13.624-.01q-13.35-.012-26.703-.012-10.853 0-21.707-.006-30.766-.013-61.534-.012h-6.708q-26.916-.002-53.833-.023-27.632-.023-55.265-.02-15.515.001-31.03-.014-13.213-.014-26.426-.005-6.74.007-13.48-.005-6.176-.011-12.35.002-2.23.003-4.459-.005c-15.017-.053-27.845 1.574-39.234 12.18-8.433 9.31-14 21.205-14.008 33.786l-.006 2.05q-.004 3.414.002 6.829 0 2.469-.004 4.938-.003 6.78.008 13.557.006 4.284.007 8.567c.018 39.764.381 79.523.802 119.284q.132 12.698.24 25.394.073 8.395.185 16.79.058 4.912.093 9.825.02 2.216.057 4.432c.173 10.58-.245 18.064-7.817 26.06l-2.38 2.56c-3.748 3.648-6.992 3.34-12.038 3.28-7.051-.647-12.751-3.296-17.72-8.389-2.482-3.604-2.11-7.493-2.035-11.734l-.02-2.99c-.014-3.305.014-6.609.042-9.914q-.002-3.555-.012-7.112c-.01-5.771.01-11.542.04-17.314.035-6.732.038-13.465.04-20.197.003-12.026.035-24.051.083-36.076q.07-17.465.082-34.928v-2.17l.004-4.326v-2.156c.002-1.065.002-1.065.002-2.151.008-11.125.03-22.25.055-33.374q.011-5.027.019-10.054.014-11.475.064-22.95.014-3.465.017-6.932c.03-27.15 2.665-49.85 22.444-70.197 21.649-21.325 49.668-27.555 79.179-27.402M240 590l-1.587 1.28C225.67 601.57 213.957 612.965 204 626l-1.267 1.625C194.795 637.84 188.12 648.61 182 660l-1.195 2.215C169.962 682.705 162.352 706.073 159 729l-.342 2.211c-8.765 58.387 15.237 106.42 40.197 157.285a2241 2241 0 0 1 12.22 25.28c4.338 9.12 8.759 18.2 13.174 27.283 3.765 7.746 7.508 15.5 11.126 23.316 3.34 7.181 7.011 14.167 10.734 21.156a912 912 0 0 1 6.407 12.313c7.376 14.4 14.993 28.601 23.05 42.636 1.713 3.01 3.372 6.048 5.028 9.09 6.383 11.697 13.38 23.023 20.332 34.387 2.608 4.266 5.175 8.554 7.725 12.854 19.004 31.998 39.839 63.537 62.349 93.189 4.573-4.178 7.772-8.876 11.129-14.059l1.766-2.692c1.895-2.892 3.781-5.789 5.668-8.686q3.937-6.024 7.878-12.043l1.97-3.013a1168 1168 0 0 1 11.491-17.245c9.374-13.796 17.928-27.699 25.642-42.514 2.339-4.414 4.831-8.736 7.331-13.06 5.23-9.08 10.336-18.226 15.413-27.392q5.512-9.953 11.088-19.872a2161 2161 0 0 0 18.48-33.604q3.043-5.645 6.132-11.265c6.755-12.285 13.27-24.681 19.696-37.14q3.606-6.992 7.291-13.941c10.38-19.576 19.98-39.483 29.185-59.636q1.268-2.773 2.538-5.543C580.023 810.798 594.961 754.087 574 692l-.858-2.566c-6.86-20.099-16.56-39.301-29.142-56.434l-1.275-1.742C508.765 585.404 459.065 555.631 403 546l-3.691-.687C343.47 536.486 283.395 554.444 240 590m971 19a1344 1344 0 0 0-4.625 5.875c-3.55 4.047-3.55 4.047-6.95 4.367-2.913-.523-5.61-1.333-8.425-2.242-25.316-5.254-51.88-3.958-74.258 10.082-4.822 3.373-9.335 7.022-13.742 10.918l-1.926 1.672c-15.158 14.078-24.013 35.214-25.277 55.605-.15 11.664.962 23.175 2.136 34.766l.208 2.073q.288 2.825.584 5.649c.659 7.743.659 7.743-1.088 9.981l-1.95 1.692c-10.528 9.952-18.11 21.74-24.687 34.562l-1.492 2.895c-16.327 33.82-15.128 72.027-3.383 106.98 14.617 41.526 46.283 73.064 85.273 92.309 26.391 12.503 56.29 18.906 85.461 18.832l3.5-.007L1223 1005l.007-1.72q.089-20.72.229-41.439c.044-6.68.084-13.36.11-20.04q.04-9.668.117-19.334.025-3.69.035-7.382c.01-3.443.037-6.885.07-10.328l-.005-3.09c.115-8.645.115-8.645 3.437-12.667 5.217-4.305 11.018-7 17.813-7 5.79.924 10.944 4.46 14.783 8.808 1.63 2.545 1.797 3.929 1.84 6.925l.064 2.872.024 3.13.06 3.312c.063 3.615.105 7.229.146 10.844l.122 7.516c.096 5.921.178 11.842.255 17.764.096 7.404.213 14.808.329 22.212q.305 19.808.564 39.617 5.89.045 11.779.065 2.967.015 5.935.04c47.42.142 90.723-20.505 124.474-52.98 29.857-30.689 46.511-72.287 46.019-114.95-.691-27.698-11.791-55.713-29.207-77.175l-1.965-2.57c-13.773-17.595-30.852-32.036-50.035-43.43l.55-1.809c8.226-28.386 7.336-55.38-6.362-81.941-13.668-23.6-35.495-41.978-61.813-49.687-33.689-8.923-67.957 3.291-91.375 28.437m-143 381v217h155v-163l-35-2c-41.519-5.432-77.901-19.799-110.99-45.49-2.962-2.226-5.995-4.356-9.01-6.51m-837.606 345.667c7.35 3.758 14.49 7.912 21.668 11.985 31.14 17.637 63.507 24.23 98.938 16.348l1.999-.44c16.447-3.85 31.328-13.055 45.626-21.748 25.269-15.23 52.303-21.264 81.562-21.125l2.464.007c12.314.052 24.323.412 36.349 3.306l2.41.57c19.612 4.836 36.725 14.19 53.977 24.445 29.66 17.503 62.941 22.476 96.613 14.985l1.999-.44c16.446-3.85 31.33-13.054 45.626-21.748 13.711-8.285 28.678-14.544 44.375-17.812l3.809-.898c22.291-4.721 50.086-4.71 72.191.898l2.357.57c19.642 4.88 36.738 14.173 54.032 24.445 31.225 18.415 66.24 22.397 101.38 14.094 15.033-4.441 28.88-12.925 42.31-20.83 22.184-13.01 46.384-21.326 72.347-21.482l2.366-.022c32.546-.227 32.546-.227 46.208 3.225l2.325.554c18.517 4.527 35.42 13.072 51.671 22.875 31.27 18.84 66.296 24.814 102.065 16.067 14.117-3.808 26.698-11.16 39.251-18.434 25.99-14.996 51.666-24.037 81.875-24.562l3.187-.093c6.707-.001 11.562.986 16.626 5.593 4.155 5.554 4.916 11.196 4 18-1.78 5.445-5.388 8.782-10 12-2.978.993-5.264 1.223-8.383 1.395-28.651 1.76-51.415 9.46-75.938 24.418-26.118 15.887-53.463 22.645-83.867 22.5l-2.463-.007c-12.314-.052-24.323-.412-36.349-3.306l-2.41-.57c-19.612-4.836-36.725-14.19-53.977-24.445-31.322-18.483-66.112-22.428-101.383-14.094-15.033 4.442-28.878 12.928-42.31 20.83-15.737 9.232-31.87 16.136-49.92 19.279l-2.965.533c-9.93 1.615-19.683 1.826-29.723 1.78l-2.547-.007c-12.138-.05-23.94-.306-35.765-3.306l-2.357-.57c-19.642-4.88-36.738-14.173-54.032-24.445-31.225-18.415-66.24-22.397-101.38-14.094-15.086 4.457-28.959 12.995-42.463 20.88-25.957 15.14-52.386 21.68-82.456 21.541l-2.547-.006c-12.142-.05-23.935-.317-35.765-3.306l-2.325-.554c-18.517-4.527-35.42-13.072-51.671-22.875-31.27-18.84-66.296-24.814-102.065-16.067-14.117 3.808-26.698 11.16-39.252 18.433-15.963 9.212-31.729 16.66-49.687 21.063l-2.116.54c-22.48 5.443-51.493 5.118-73.884-.54l-2.325-.554c-19.131-4.677-36.224-13.668-53.05-23.696-20.32-12.09-39.278-17.842-62.947-18.892-7.01-.39-13.108-1.355-18.29-6.44-3.887-4.524-4.681-9.58-4.388-15.418.998-5.871 3.713-9.195 8.281-12.871 19.458-12.78 62.26 3.342 81.113 12.538"/><path d="M437.232 675.994C452.998 689.248 464.638 705.36 471 725l.633 1.89c8.633 26.787 3.128 55.244-9.383 79.735-13.623 23.875-36.103 41.812-62.578 49.368-27.187 7.177-56.867 3.877-81.352-10.024-23.64-14.157-41.073-35.466-48.39-62.211-6.69-27.042-2.849-55.733 11.445-79.758 15.08-24.2 37.955-41.177 65.72-47.903 31.428-6.814 64.87-.404 90.137 19.897M325.187 714.25c-13.004 13.721-17.74 29.5-17.468 47.871.247 6.398 1.828 11.984 4.281 17.879l1.027 2.594c6.55 14.73 19.498 26.353 34.293 32.41L350 816l2.43.965c15.392 5.203 32.221 2.588 46.57-4.09 16.75-8.493 28.212-22.41 34.102-40.203 4.34-16.79 1.706-33.66-7.008-48.578-9.418-13.916-23.195-25.13-39.996-28.472-23.192-4.127-43.764 2.656-60.91 18.628M888 888c9.984 10.675 6.464 39.903 6 54a738 738 0 0 1-.875 14.938l-.238 3.645-.254 3.444-.222 3.055c-.624 4.428-1.14 7.949-4.786 10.73-8.062 3.647-19.305 3.58-27.773 1.364-5.45-2.372-5.45-2.372-6.852-5.176a122 122 0 0 1-.133-5.945l-.007-3.886a3023 3023 0 0 1 .024-6.489q.028-6.062.079-12.124c.03-3.93.041-7.858.043-11.788.003-5.447.039-10.892.094-16.338q.025-3.238.02-6.475c-.003-3.055.032-6.107.075-9.162l-.027-2.777c.14-6.117.14-6.117 2.118-8.686 8.74-7.529 22.81-7.562 32.714-2.33m-.48-347.559c5.202 5.477 5.195 13.07 5.668 20.184l.239 3.36c1.02 15.43.723 30.589-.302 46.015l-.237 3.673-.255 3.452-.222 3.07c-.683 4.664-1.531 7.117-5.286 10.055-7.35 4.116-17.71 3.877-25.848 2.184-3.378-1.206-6.127-2.55-8.277-5.434-.356-2.7-.356-2.7-.328-6.043l.012-3.876.066-4.269.044-4.434q.054-4.92.132-9.838c.074-5.004.098-10.008.117-15.013.02-4.365.065-8.73.114-13.096q.03-3.238.037-6.476c.01-3.055.05-6.108.099-9.162l-.012-2.777c.103-4.481.25-6.415 3.087-10.047 8.024-6.002 22.326-6.072 31.152-1.528m-4.047-174.804c3.242 1.749 6.15 3.53 8.527 6.363.605 2.89.815 4.95.76 7.832.01.773.018 1.546.027 2.342.022 2.547 0 5.092-.025 7.639q.002 2.66.01 5.323.004 5.573-.045 11.146c-.04 4.759-.03 9.516-.005 14.274.014 3.664.004 7.326-.014 10.99q-.01 2.63.004 5.263c.008 2.454-.016 4.905-.05 7.359.01.722.018 1.444.027 2.189-.09 3.86-.57 5.498-3.05 8.52-7.595 6.112-15.133 5.888-24.639 5.123-3.886-.82-6.301-2.3-9.139-5.141-2.292-3.522-2.456-6.345-2.455-10.416l-.045-2.253c-.045-2.45-.061-4.897-.076-7.346q-.033-2.562-.072-5.122-.07-5.361-.107-10.722c-.032-4.577-.095-9.153-.168-13.73-.054-3.524-.092-7.048-.126-10.572a982 982 0 0 0-.066-5.062c-.035-2.36-.05-4.72-.058-7.08l-.042-2.103c.01-4.333.723-7 3.354-10.453 2.375-1.766 2.375-1.766 5-3.25l2.625-1.516c7.05-3.663 12.786-2.378 19.848.403m4.968 350.144C890 717 890 717 892 719c.209 2.533.294 4.957.29 7.491l.02 2.342c.02 2.562.024 5.124.026 7.687l.02 5.336q.017 5.6.015 11.2c0 4.782.027 9.563.061 14.345.022 3.676.026 7.352.025 11.028q.005 2.644.027 5.288c.02 2.468.014 4.935.002 7.403l.034 2.203c-.06 4.84-1.061 7.301-4.52 10.677-5.21 2.886-9.625 3.518-15.437 3.438l-2.266-.02c-5.7-.161-9.61-.975-14.297-4.418-2.452-3.528-2.345-7.262-2.414-11.411l-.06-2.244c-.061-2.444-.107-4.889-.151-7.333l-.05-2.537q-.133-6.645-.233-13.29a1356 1356 0 0 0-.297-13.699c-.084-3.52-.14-7.04-.19-10.56a412 412 0 0 0-.115-5.048c-.413-14.807-.413-14.807 3.4-19.37 4.628-3.733 4.628-3.733 7.235-4.883l1.945-.898c8.268-3.113 16.23-.815 23.371 4.054M746 714c2.505 3.757 2.303 6.727 2.306 11.08l.026 2.494c.024 2.724.032 5.448.04 8.172l.026 5.676q.024 5.95.028 11.9c.005 5.086.043 10.171.088 15.257.03 3.908.037 7.815.038 11.723q.006 2.813.038 5.625c.027 2.622.022 5.242.01 7.864l.044 2.35c-.051 3.8-.295 5.49-2.951 8.294-6.983 4.058-15.364 4.707-23.19 3.03-4.534-1.363-7.511-2.648-10.503-6.465a50.6 50.6 0 0 1-.533-7.994c-.01-.802-.018-1.604-.027-2.43-.022-2.65-.015-5.298-.006-7.947l-.02-5.53q-.014-5.793.01-11.588c.017-4.947-.007-9.894-.042-14.842-.022-3.807-.02-7.613-.012-11.42q0-2.735-.02-5.471c-.018-2.553-.004-5.103.019-7.655l-.036-2.278c.072-3.94.524-5.667 3.028-8.772 8.422-6.617 22.46-5.933 31.639-1.073m-1-348c1.59 1.054 1.59 1.054 3 3 .306 2.767.43 5.31.42 8.08l.026 2.494c.023 2.724.024 5.448.023 8.172l.023 5.676q.019 5.95.009 11.9c-.006 5.086.025 10.171.065 15.257.026 3.908.029 7.815.025 11.723q.003 2.813.03 5.625c.021 2.622.012 5.242-.006 7.864l.04 2.35c-.06 3.836-.3 5.492-3.013 8.295-7.65 4.529-16.614 4.813-25.224 3.029-4.002-1.359-6.387-2.781-8.418-6.465a69 69 0 0 1-.404-8.01l-.02-2.435a881 881 0 0 1-.01-7.961l-.015-5.537q-.014-5.8.003-11.6c.011-4.957-.009-9.913-.038-14.87-.018-3.81-.018-7.621-.012-11.432q0-2.741-.019-5.483c-.014-2.555-.004-5.108.013-7.662l-.029-2.29c.05-3.496.251-5.363 2.44-8.155 8.707-6.514 21.603-6.368 31.091-1.565m.598 522.539c2.753 2.82 2.997 4.445 3.057 8.32l-.04 2.35.017 2.5c.012 2.724-.012 5.446-.038 8.17q-.003 2.84 0 5.678-.003 5.948-.052 11.896c-.04 5.087-.044 10.173-.037 15.26.004 3.908-.009 7.815-.026 11.723q-.01 2.813-.009 5.627c-.002 2.62-.023 5.238-.05 7.857l.009 2.357c-.083 5.219-.083 5.219-1.754 7.655-7.385 4.708-18.263 4.078-26.542 2.533-4.376-1.313-6.795-2.386-9.133-6.465a71 71 0 0 1-.203-8.25l.084-5.43.062-3.038c.062-3.555.084-7.11.098-10.665q.038-9.15.143-18.302c.04-3.54.072-7.081.087-10.623.015-3.485.05-6.97.097-10.456.022-1.948.024-3.895.026-5.843l.06-3.565.027-3.128c.652-3.393 1.864-4.56 4.519-6.7 9.214-4.2 20.72-4.72 29.598.539m-15.223-350.914 2.277-.002c5.92.118 10.948.977 15.348 5.377.111 2.631.157 5.236.161 7.869l.015 2.498q.021 4.11.027 8.219l.017 5.691q.015 5.974.02 11.95c.006 5.11.03 10.22.058 15.33.019 3.921.024 7.841.026 11.762q.004 2.826.024 5.653c.017 2.634.015 5.267.008 7.9l.028 2.372c-.04 5.277-.04 5.277-1.773 7.691-4.995 3.302-9.617 3.401-15.423 3.378l-2.33.048c-6.024.005-11.706-.832-16.565-4.73-2.322-2.928-1.598-6.739-1.496-10.315l.084-5.733.062-3.183c.06-3.624.083-7.246.098-10.87q.038-9.149.143-18.297c.04-3.532.072-7.063.087-10.596q.024-5.22.097-10.44c.022-1.943.024-3.886.026-5.83l.06-3.555.027-3.119c.655-3.396 1.853-4.555 4.519-6.693 4.763-2.142 9.24-2.385 14.375-2.375"/></svg>