<svg xmlns="http://www.w3.org/2000/svg" fill="currentColor" viewBox="0 0 1705 1515"><path d="M1347.3 187.5c-3.6 1.1-14.2 11.2-70.8 67.1l-66.6 65.9-151.2.5-151.2.5-4 2.1c-7 3.8-10.5 9.7-10.5 17.9 0 9.3 1.7 11.2 23.5 27.4 20.7 15.4 34.7 29.3 39.9 39.5 1.9 3.8 2.6 6.6 2.6 11.2 0 14.3 4.2 25.8 12.4 33.9 3.3 3.2 12.7 9.5 26 17.4 47.5 28.3 99.1 64.8 119.7 84.9 14 13.5 16.9 18.3 16.9 27.9 0 8.2-2.8 15.7-11.8 31.3-8.3 14.2-11.2 22.5-11.2 31.4 0 8.1 2 14.7 6.4 21.1 3.8 5.4 6.1 7.3 20.1 16.4 21.4 14 30.7 28.6 30.8 48.6 0 26.6-16.7 77.1-38.3 115.7-36.7 65.2-97.6 117-174.3 148.3-43.2 17.5-86.9 22.6-126.2 14.5-13.3-2.7-17.4-4-47.2-14.5-14.4-5.1-29.3-10-33.2-10.9-8.8-2-22.9-2.1-30.4-.1-17.3 4.5-30.6 18.1-33.7 34.4-.5 3-1 20.5-1 39.1 0 38-1.5 82.8-3.1 91-2.2 11.5-7.7 20.2-19.3 30.8-5.6 5.1-7.6 9.3-7.6 15.9.1 9.1 5.1 16.2 13.1 18.3 2.6.7 115.4 1 351.1.7 327.8-.2 347.9-.4 357.8-2 29.2-5 53.6-13.8 76.8-27.5 59.9-35.6 99.7-98.9 105.1-167.2 1.4-17.6 2.4-488.8 1.1-502.3-6.6-66.5-44.4-127.1-101.3-162.4-21.2-13.1-48.6-23.9-71.7-28.3-6.3-1.2-12.1-2.4-12.7-2.6-1-.3-1.3-13.4-1.3-61.2v-60.9l-2.3-4.4c-4.2-7.9-14.1-12-22.4-9.4M1335.9 349c4.3 7.9 8.1 9.7 23.8 11.5 25.2 3 43.9 8.6 65.3 19.6 27.9 14.4 53.3 38 70.1 64.9 13.8 22.2 22.6 47.7 25.9 75 1.5 12.2 1.4 482.4-.1 496.2-3.7 34.5-20.7 72.8-44.4 100-22.6 26-57.1 47.5-89.5 55.8-22.7 5.8 5.8 5.3-349.4 5.7-277.7.3-325.7.1-325.3-1.1 1.2-3 4.7-15.5 6.3-22.1 1.4-6 1.8-15.8 2.3-66.8l.6-59.9 3.3-2.9c5.7-5.1 13.4-3.7 47.5 8.5 35.4 12.8 49 16.3 72.2 18.7 14.3 1.4 44.1.7 59.3-1.6 33.6-4.9 63.9-15.1 101.2-34.1 55.8-28.4 103.3-68.5 137.7-116.5 36.9-51.5 63.3-121.9 63.3-169 0-21.7-6.4-38.6-21-55.7-6.9-8-24.8-22.5-34.6-28-1.5-.9-1.6-1.3-.4-4.3.7-1.9 3.3-6.6 5.6-10.4 17.6-28.8 20.9-52.7 10.3-75.5-5.7-12.2-16.6-24.6-36.4-41.4-25.9-22-33.2-27.2-82.5-58.3-21.7-13.7-41.4-26.2-43.7-27.7-4.6-3.1-6.3-6.6-6.3-13.1 0-6.3-3.6-19.2-7.5-27-2-3.9-6.8-10.8-10.8-15.4-3.9-4.6-8.3-9.6-9.6-11.2l-2.4-2.9h125c112 0 125.5-.2 130.4-1.6 5.2-1.6 7.6-3.8 58.4-54.3l53-52.6.5 47.5c.4 37.7.8 48 1.9 50M351 321.7c-31.5 2.2-59.7 9.6-86.5 22.8-23.8 11.7-42 24.9-59.7 43.4-16.8 17.4-28.2 33.8-38.8 55.6-12.1 24.7-18.8 49.1-21.1 77-1.6 19.2-.6 494.3 1.1 506 7.6 54.3 34.6 103.7 75 137.8 28.7 24.1 61.4 39.8 99.5 47.8l10.5 2.2v51.8c0 34.2.4 52.7 1.1 54.6 2.5 6.8 10 11.2 18.9 11.3 3.8 0 6.4-.6 8.5-2 1.7-1 28.4-27.1 59.5-57.9l56.5-56 64.5-.1c60.7 0 64.7-.2 68.6-1.9 6.3-2.9 10.4-10.1 10.4-18.3s-5-14.3-16.8-20.2c-14.4-7.3-31.6-21.6-39.7-33.1-5.8-8.2-9.2-15.3-11.8-24.3l-2.1-7.7.3-325.5.3-325.5 2.6-4.8c3.1-5.9 6.9-9.2 14.2-12.6l5.5-2.5 61-.3c39.5-.2 62.4-.7 65-1.4 2.1-.6 5.4-2.1 7.3-3.4 5.2-3.5 88.4-75.9 92.5-80.4 7.6-8.4 5.6-23.2-4-29.7-3.1-2-4.1-2.1-73-2.7-67.4-.7-360.1-.7-369.3 0m381 38.7c0 .2-10.3 9.5-23 20.5L686 401h-57.3c-53.9 0-57.9.1-65.3 2-26.4 6.6-45.1 25.4-51.6 51.8-.8 3.5-1 88.8-.9 331.7.3 355.8-.1 333.5 5.8 349.8 3.8 10.7 10.5 23.1 17.8 32.9l6.5 8.8h-37.5c-35 0-37.8.1-42.7 2-4.7 1.8-10.1 6.8-48.5 45.2l-43.3 43.3v-36.1c0-41.4-.3-43.8-6.9-49.7-2.2-2-5.5-3.8-7.3-4.1s-8.4-1.2-14.5-2.1c-47.4-6.6-89.2-30.1-119-67-16.2-20.1-29.6-48.1-35.3-74.1-2-9-2.3-14.3-3.1-57.9-.5-26.4-.8-140.7-.6-254 .3-190.2.5-206.7 2-214.5 2.7-12.9 5.5-22.4 10.3-34.5 19.3-48.2 53.7-82.5 102.2-102.1 10.3-4.1 27.7-8.8 38.2-10.3 4.1-.6 8.6-1.3 10-1.5 3.4-.5 387-.7 387-.2"/></svg>