<svg xmlns="http://www.w3.org/2000/svg" fill="currentColor" viewBox="0 0 1283 1515"><path d="m602 300 2.418 1.527a2456 2456 0 0 1 39.052 25.205q4.187 2.756 8.382 5.5a758 758 0 0 1 32.236 22.374c2.992 2.181 6.014 4.318 9.037 6.457 7.73 5.505 15.313 11.203 22.875 16.937l1.714 1.296c8.645 6.547 17.072 13.343 25.461 20.211a1959 1959 0 0 0 4.829 3.934c10.068 8.192 19.97 16.53 29.531 25.309a281 281 0 0 0 6.215 5.5c11.527 10.084 22.414 20.811 33.25 31.625l1.788 1.78c6.292 6.27 12.49 12.542 18.212 19.345l1.71 1.977c17.436 20.182 27.705 39.368 26.477 66.534-.9 12.008-5.594 22.113-11.19 32.596-6.844 13.005-11.494 24.912-8.38 39.854 4.544 14.032 14.912 22.6 26.281 31.242C885.954 670.148 894.576 684.573 898 702l.688 3.438c5.28 60.191-32.234 132.2-69.563 177.066L827 885c-3.86-1.587-6.536-4.197-9.457-7.086l-1.537-1.51a884 884 0 0 1-3.19-3.162 583 583 0 0 0-4.923-4.812q-1.552-1.538-3.1-3.078l-1.502-1.443c-1.357-1.375-1.357-1.375-3.291-3.909.08-3.085 1.531-5.042 3.336-7.477l1.459-2.002 1.58-2.146C831.295 813.698 867.195 753.468 860 709c-3.373-13.288-12.504-20.206-23-28-16.456-12.515-26.782-31.358-30.46-51.527A74 74 0 0 1 806 623l-.121-2.277c-.551-20.01 6.41-37.454 15.95-54.614 4.54-8.319 6.528-17.495 4-26.785C821.797 528.012 813.948 519.71 806 511l-2.344-2.607c-7.064-7.804-14.409-15.3-21.864-22.731a2856 2856 0 0 1-5.962-5.969c-8.382-8.394-8.382-8.394-17.208-16.316-2.555-2.169-4.982-4.468-7.434-6.752-4.626-4.273-9.389-8.314-14.297-12.262a323 323 0 0 1-7.781-6.603c-7.014-6.105-14.273-11.805-21.692-17.408a746 746 0 0 1-11.107-8.587C686.726 404.243 676.937 397.047 667 390l-1.707-1.216c-11.21-7.986-22.547-15.778-33.958-23.475a4367 4367 0 0 1-8.298-5.62 718 718 0 0 0-32.213-20.584c-3.797-2.3-7.525-4.708-11.261-7.105-28.716-18.988-28.716-18.988-62.137-21.316-15.32 4.061-26.9 13.038-39.426 22.316l-4.75 3.5a7456 7456 0 0 0-7.132 5.259c-11.186 8.257-22.478 16.369-33.8 24.44a2881 2881 0 0 0-14.068 10.113l-2.281 1.647a2960 2960 0 0 0-11.73 8.514c-20.44 14.895-39.391 26.652-65.472 26.685l-2.723.015q-2.913.016-5.826.026-4.625.02-9.248.053a8227 8227 0 0 1-26.288.15q-8.055.032-16.11.1-3.055.021-6.109.026c-22.043-.02-22.043-.02-41.21 9.964-12.42 12.947-9.402 34.923-9.335 51.521l.01 5.623q.015 7.67.04 15.34.024 8.31.04 16.622.031 14.445.071 28.89.058 21.197.105 42.395a220469 220469 0 0 0 .21 86.447c.003.693.004 1.386.006 2.101a385444 385444 0 0 1 .234 95.614l.004 2.01.042 18.05q.05 21.924.107 43.85c.136 53.026.247 106.051.155 159.077q-.018 10.348-.031 20.696l-.019 13.326-.005 3.271q-.025 18.87-.092 37.742-.04 11.504-.054 23.007-.011 7.788-.055 15.577c-.015 3.134-.017 6.267-.015 9.401a559 559 0 0 1-.021 4.264c-.123 14.589 2.53 27.24 12.643 38.141 6.111 5.74 12.924 10.633 19.707 15.543l2.195 1.591c12.787 9.668 12.787 9.668 27.805 14.409l1.879.191c9.21.511 18.287-2.62 25.375-8.5 8.561-8.293 11.477-17.749 11.83-29.501a768 768 0 0 0-.002-10.07l-.014-5.868q-.01-3.135-.023-6.27a5228 5228 0 0 1-.036-13.133q-.037-18.667-.105-37.333-.037-10.324-.052-20.649-.01-6.504-.044-13.008c-.014-3.358-.016-6.716-.02-10.074l-.026-3.567c.025-21.818 4.71-42.816 20.078-59.19 14.826-13.915 31.699-17.882 51.492-17.364 12.915.603 24.319 5.25 36.262 9.837 35.25 13.43 72.63 19.743 110.281 19.687l2.474-.003c41.45-.103 85.764-6.297 123.647-24.017 3.216-1.25 3.902-1.305 7.004-.168a107 107 0 0 1 6.078 5.785l1.732 1.745c1.82 1.837 3.63 3.685 5.44 5.533l3.703 3.744q4.535 4.585 9.047 9.193c-2.121 2.323-4.037 3.68-6.895 4.98l-2.359 1.077-2.558 1.13-2.698 1.196c-87.522 38.175-189.51 37.647-278.045 3.235a817 817 0 0 1-6.51-2.598c-8.873-3.083-17.428-2.925-25.935.98-7.418 4.85-10.75 11.746-12.575 20.23-.853 5.559-.707 11.16-.696 16.772l-.016 4.188q-.017 4.485-.018 8.971c-.002 4.744-.02 9.487-.04 14.23-.05 11.783-.08 23.567-.102 35.35-.017 9.158-.04 18.316-.083 27.473q-.032 7.05-.028 14.1a1530 1530 0 0 1-.033 8.832c-.008 1.983-.002 3.966.006 5.95-.093 11.685-1.632 23.516-6.603 34.217l-.908 2.009c-2.807 5.945-6.423 10.866-10.904 15.678l-1.676 1.914c-11.889 12.882-31.02 20.913-48.324 22.086l-1.918.156c-26.615 1.199-48.292-14.474-68.082-30.156l-2.98-2.328A418 418 0 0 1 214 1189l-2.25-1.77c-15.36-12.667-24.666-32.01-27.039-51.614-.661-6.908-.854-13.739-.842-20.675l-.007-3.546q-.006-4.845-.003-9.691-.001-5.282-.008-10.564-.011-10.464-.01-20.927-.004-12.54-.015-25.077c-.016-20.197-.022-40.394-.027-60.591l-.01-28.67a342378 342378 0 0 1-.03-125.983c-.003-33.198-.02-66.395-.042-99.593a158029 158029 0 0 1-.04-116.898v-2.876q-.005-22.9-.027-45.802-.022-23.016-.01-46.033.007-13.67-.015-27.34-.014-9.138.001-18.276.01-5.202-.006-10.403c-.075-25.13 2.252-46.983 19.88-66.429 16.772-16.322 39.207-21.399 61.998-21.384l2.7-.01q2.872-.011 5.746-.017 4.561-.012 9.123-.041c8.64-.052 17.279-.1 25.919-.116 5.302-.01 10.604-.04 15.907-.081q3.014-.019 6.026-.015c13.183.01 24.1-.424 35.144-8.515l1.598-1.154q1.74-1.257 3.467-2.532c2.012-1.48 4.038-2.94 6.067-4.397 3.833-2.753 7.655-5.52 11.474-8.29 3.773-2.736 7.552-5.462 11.331-8.19l4.5-3.25 27-19.5 2.251-1.626 4.49-3.242q6.858-4.953 13.713-9.91 2.284-1.651 4.573-3.297c3.406-2.45 6.8-4.91 10.153-7.433C513.11 258.59 556.933 271.492 602 300"/><path d="M675.912 504.427C721.57 544.653 749.022 602.441 753 663c2.861 60.505-15.876 120.936-56.687 166.313l-2.25 2.437c-1.814 1.978-3.533 4.002-5.25 6.063-37.058 42.363-95.372 66.865-150.606 70.91-59.011 3.512-119.788-13.696-164.728-53.056a419 419 0 0 1-7.034-6.41c-2.104-1.942-4.25-3.793-6.445-5.632-41.37-36.252-65.532-94.087-69.687-148.11C286.569 636.677 303.39 576.318 342 531l2.77-3.324c9.5-11.333 19.557-21.536 31.23-30.676l3.02-2.43c76.003-60.596 186.501-64.622 296.892 9.857M459 495l-2.065.678C432.901 503.591 411.825 517.331 393 534l-2.781 2.41c-5.189 4.556-9.841 9.258-14.219 14.59l-1.256 1.473c-34.02 39.911-49.116 90.602-45.526 142.694C333.323 738.24 352.24 778.724 382 810l1.547 1.63c34.084 35.667 81.742 56.937 131.094 58.651 34.82.714 67.684-6.786 98.359-23.281l1.79-.94c14.309-7.539 27.077-17.346 38.68-28.581a375 375 0 0 1 3.209-3.063c33.747-31.875 55.518-78.235 57.462-124.784 1.51-57.15-16.865-106.96-56.196-148.581-32.302-33.68-80.463-55.067-127.129-56.29-24.87-.402-48.166 2.101-71.816 10.239"/><path d="m535 570 2.574 1.39c4.615 2.753 4.615 2.753 6.426 4.61 1.07 4.637 1.12 9.195 1.066 13.926l-.014 2.339q-.015 2.502-.038 5.003-.031 3.975-.048 7.951c-.033 7.533-.075 15.066-.137 22.598q-.055 6.926-.075 13.851a802 802 0 0 1-.04 5.246c-.529 16.683-.529 16.683 5.598 31.774 3.131 2.694 4.552 3.565 8.688 3.312 5.68-3.408 8.065-7.758 10-14 3.805-15.72 2.078-32.246.712-48.17-.637-7.63-.825-15.176-.712-22.83 4.772 1.517 8.917 3.47 13.188 6.063l1.99 1.207c29.802 18.457 48.279 48.912 56.22 82.52 2.774 12.331 4.607 24.614 5.602 37.21l3.105.953 4.082 1.297 2.042.621c5.044 1.624 9.026 3.553 12.1 8.09.802 2.435.743 4.127.421 6.664l-.266 2.352C667 746 667 746 665 748c-2.145.487-2.145.487-4.812.816-.996.125-1.99.25-3.016.377l-3.172.37-2.984.38c-15.598 1.89-31.218 2.205-46.908 2.155l-5.438-.005q-5.797-.005-11.593-.018-9.197-.02-18.395-.024a58456 58456 0 0 1-42.366-.056c-12.952-.02-25.905-.039-38.857-.048q-9.111-.008-18.223-.029-5.703-.01-11.406-.013-2.61-.003-5.219-.01a536 536 0 0 0-32.091.871C389.34 754.49 389.34 754.49 378 747c-2.38-2.825-2.938-4.397-3.312-8.062.313-2.945.733-4.473 2.312-6.938 1.74-.836 1.74-.836 3.809-1.375 5.101-1.694 9.62-3.46 13.191-7.625 2.781-7.715 2.452-16.325 2.773-24.434 1.972-31.023 18.7-63.488 41.807-83.966C455.937 600 455.937 600 463 600l-.013 2.273q-.06 10.678-.09 21.357-.015 5.487-.048 10.975-.032 5.31-.039 10.621-.01 2.98-.037 5.962c-.11 15.049-.11 15.049 5.227 28.812 3.691 2.46 6.715 2.677 11 2 4.235-2.747 5.738-7.28 7-12 1.18-6.23 1.152-12.373 1.125-18.687l-.006-3.353a385 385 0 0 0-.619-20.21 418 418 0 0 1-.687-20.875l-.04-2.548c-.017-10.77 1.924-21.367 9.274-29.628C506.218 564.164 521.35 562.466 535 570m158 269c5.16 1.535 8.52 4.793 12.438 8.313q2.877 2.552 5.768 5.088a105 105 0 0 1 3.366 3.127c2.612 2.441 4.134 3.438 7.725 3.855l3.453-.258c14.25-.479 24.396 5.782 34.605 15.316 13.214 12.785 13.214 12.785 18.082 18.496 6.761 7.921 14.332 15.268 22.274 21.993 4.09 3.7 7.913 7.676 11.794 11.594 3.703 3.726 7.458 7.288 11.475 10.675 3.3 2.942 6.374 6.112 9.458 9.276a126 126 0 0 0 8.156 7.619c6.535 5.653 12.492 11.937 18.56 18.081 5.542 5.604 11.063 11.166 17.062 16.286 13.36 11.527 24.705 23.802 26.596 41.976.622 11.642-2.562 21.397-9.492 30.856-8.772 9.733-21.485 13.994-34.195 15.02-16.86-.578-27.705-10.181-39.125-21.313l-2.582-2.496c-3.361-3.304-6.57-6.667-9.645-10.238-3.886-4.47-8.05-8.618-12.273-12.766-4.85-4.764-9.524-9.582-13.959-14.736-1.916-2.194-3.95-4.236-6.041-6.264-3.41-3.31-6.527-6.8-9.64-10.385-3.016-3.429-6.156-6.738-9.298-10.053l-4.25-4.496-2.171-2.296q-3.081-3.269-6.141-6.555c-6.894-7.388-13.868-14.682-21-21.84l-2.066-2.08c-3.9-3.887-7.921-7.56-12.086-11.16-8.832-7.813-17.066-17.29-20.848-28.635.023-1.849.05-3.698.118-5.546.412-12.656-3.078-17.737-11.583-26.938-2.395-2.377-4.897-4.42-7.535-6.516-1.788-1.925-3.362-3.94-5-6 1.445-3.502 3.164-5.137 6.188-7.375 7.728-5.972 14.907-12.72 21.812-19.625"/><path d="M1085 764c4.719 1.66 7.511 3.645 10 8 2.408 8.888 1.878 16.987.563 26l-.562 4.04c-10.795 75.72-38.723 143.079-78.388 208.288a469 469 0 0 0-4.203 7.11c-7.065 12.158-15.618 22.774-24.746 33.425-2.51 2.936-4.933 5.937-7.351 8.95-3.274 4.026-6.721 7.708-10.442 11.32-1.748 1.745-3.342 3.542-4.933 5.43-7.608 8.834-16.097 17.27-25.008 24.785-2.415 2.068-4.726 4.238-7.055 6.402-5.146 4.692-10.518 9.002-16.031 13.252a344 344 0 0 0-7.273 5.79c-8.84 7.234-17.974 13.8-27.509 20.083l-2.16 1.431c-60.14 39.811-60.14 39.811-79.902 37.694-4.899-2.1-7.196-5.028-9.305-9.785-1.667-5.311-1.534-9.567.992-14.527 3.889-4.52 8.023-7.223 13.407-9.72l3.588-1.686 1.886-.879c38.895-18.19 73.766-42.474 105.432-71.403l2.969-2.687c8.115-7.364 16.033-14.84 23.168-23.172 2.152-2.473 4.383-4.864 6.613-7.266 5.282-5.794 10.087-11.897 14.872-18.103a370 370 0 0 1 4.026-5.073c49.751-61.875 84.303-141.353 93.407-220.383l.26-2.248c.417-3.65.81-7.298 1.166-10.953.867-8.41 1.666-15.538 8.144-21.553 4.756-3.129 8.772-3.036 14.375-2.562m-67.937-336.273c6.741 3.574 9.793 9.538 13.027 16.09l1.154 2.303a1901 1901 0 0 1 3.694 7.442l1.282 2.583c7.532 15.164 14.833 30.412 21.78 45.855l1.615 3.556c16.427 36.303 28.673 73.665 36.447 112.757l.463 2.286c4.459 22.287 4.459 22.287.787 29.901-4.724 5.108-7.8 7.169-14.624 7.813-4.36-.37-7.38-1.43-10.688-4.313-3.595-4.673-4.936-8.671-6.027-14.32l-.497-2.39c-.503-2.428-.99-4.859-1.476-7.29a2131 2131 0 0 0-1.754-8.367l-.437-2.08c-11.955-56.594-32.009-117.34-65.278-165.198-3.278-5.043-3.374-10.526-2.531-16.355 4.527-9.311 12.955-13.834 23.063-10.273m-547.485 772.058 3.197.583q5.984 1.173 11.95 2.434c22.226 4.672 44.603 7.296 67.322 7.436l3.982.03c4.24.027 8.48.037 12.721.044l2.19.005c23.87.045 47.369-.934 71.058-4.054 4.26-.56 8.525-1.084 12.789-1.617q2.906-.372 5.807-.782c18.774-2.592 18.774-2.592 26.406 3.136 3.547 3.636 4.286 6.566 4.5 11.5-.243 6.181-2.396 9.2-6.5 13.688-8.769 5.297-20.395 5.726-30.375 6.874l-2.177.255c-59.472 6.907-118.714 3.762-177.823-4.88l-2.13-.302a694 694 0 0 1-5.956-.889l-3.4-.51c-4.95-1.16-9.188-2.877-12.014-7.236-2.859-5.024-3.023-9.866-2.125-15.5 1.337-4.116 3.24-6.515 6.938-8.875 4.919-1.807 8.466-2.295 13.64-1.34M980 737c4.646 1.731 7.439 3.731 10 8 1.36 6.702.575 12.42-.625 19.102l-.552 3.218c-.594 3.437-1.207 6.871-1.823 10.305l-.627 3.55c-11.286 63.818-31.132 123.59-69.498 176.45l-1.361 1.884c-2.029 2.74-3.646 4.579-6.514 6.491l-1.25-1.285c-3.839-3.899-7.806-7.565-11.95-11.137A93 93 0 0 1 890 948c1.528-4.426 3.923-8.053 6.563-11.875 35.585-52.639 57.344-114.787 65.019-177.746l.255-2.081c.206-1.757.39-3.516.573-5.275 1.172-6.005 3.598-9.567 8.59-13.023 3.072-1.536 5.602-1.227 9-1m-40-223c10.142 5.445 14.897 18.374 19.25 28.375l1.42 3.256C975.228 579.555 988.654 616.677 987 654c-13.24 5.065-13.24 5.065-19 3-8.073-4.438-10.425-9.4-13-18-1.261-4.693-2.427-9.404-3.574-14.126-5.028-20.527-11.647-40.288-19.36-59.96l-1.031-2.642c-1.686-4.313-3.387-8.62-5.121-12.914-7.848-19.693-7.848-19.693-4.851-28.295 4.553-7.199 10.85-8.73 18.937-7.063m-290 585c3.385 7.254 4.984 15.198 3 23-3.773 5.478-8.838 6.52-15 8-4.774.855-9.566 1.503-14.375 2.125l-3.75.512A710 710 0 0 1 609 1134l-2.778.33c-10.696 1.076-21.484.912-32.222.92l-3.226.004c-49.79-.014-49.79-.014-62.774-8.129-2.265-2.407-3.25-3.902-4-7.125.259-7.123 3.172-11.589 8.25-16.375 6.247-4.323 13.543-3.136 20.75-2.625l3.229.223c4.77.334 9.54.67 14.307 1.064 13.539 1.085 26.922.798 40.464-.1l2.01-.128c9.897-.641 19.689-1.695 29.51-3.085 9.33-1.296 18.164-1.407 27.48.026m117.056-44.426c3.938 2.888 7.255 6.41 10.694 9.864l2.402 2.353 2.27 2.268 2.08 2.072C786 1073 786 1073 786 1076q-5.872 3.319-11.75 6.625l-3.309 1.871c-5.436 3.056-10.895 6.059-16.433 8.926l-2.824 1.464c-4.265 1.77-8.179 2.062-12.684 1.114-4.029-2.05-6.58-4.215-9-8-.972-4.14-1-8.29 1.184-12.023 5.026-5.8 10.707-9.213 17.441-12.79q3.051-1.664 6.102-3.332l2.705-1.448c2.628-1.38 2.628-1.38 5.148-3.21 2.42-1.197 2.42-1.197 4.476-.623"/></svg>