<svg id="Capa_1" data-name="Capa 1" xmlns="http://www.w3.org/2000/svg" viewBox="0 0 48 48"><defs><style>.cls-1{fill:#00a9c3;}</style></defs><path class="cls-1" d="M44.81,22.77A1.43,1.43,0,0,1,44.9,22,13.14,13.14,0,0,0,43,8.28a12.78,12.78,0,0,0-8-4.75c-.78-.14-1.57-.18-2.36-.27a13.45,13.45,0,0,0-12,7.5A18.33,18.33,0,0,1,35.9,25.7a18.57,18.57,0,0,1,.26,3.85A14,14,0,0,0,37.84,29a1.65,1.65,0,0,1,1-.09L44.26,30a1.35,1.35,0,0,0,1.68-1.67C45.56,26.46,45.17,24.62,44.81,22.77Z"/><path class="cls-1" d="M33.68,26.08A16,16,0,0,0,19.82,12.92,16.1,16.1,0,0,0,18,12.78c-.94.1-1.89.15-2.81.32a15.14,15.14,0,0,0-9.58,5.67C1.69,23.76,1,29.25,3.32,35.13a1.75,1.75,0,0,1,.1.93c-.43,2.21-.89,4.42-1.35,6.62a1.59,1.59,0,0,0,1.57,2,2.28,2.28,0,0,0,.44,0c2.14-.44,4.29-.87,6.43-1.32A1.85,1.85,0,0,1,11,43.3a1.93,1.93,0,0,1,.77.16,15.62,15.62,0,0,0,6.17,1.28,16.5,16.5,0,0,0,3.6-.41A16,16,0,0,0,33.68,26.08ZM21,42.13a14.54,14.54,0,0,1-3.11.35,13.48,13.48,0,0,1-5.29-1.1A4.24,4.24,0,0,0,10,41.14L5.79,42l-1.33.27.1-.49q.56-2.65,1.08-5.31a4,4,0,0,0-.22-2.19c-2-5.21-1.42-9.84,1.93-14.14a13,13,0,0,1,8.21-4.84c.53-.1,1.11-.15,1.72-.21l.8-.07c.43,0,.87,0,1.29.09A13.84,13.84,0,0,1,31.46,26.47,13.42,13.42,0,0,1,31.6,30,13.57,13.57,0,0,1,21,42.13Z"/><path class="cls-1" d="M13.32,25.58a4.66,4.66,0,1,1,9.32,0,4.66,4.66,0,1,1-9.32,0Z"/><path class="cls-1" d="M13.43,30.22a6.47,6.47,0,0,0,9.09,0,6.1,6.1,0,0,1,1.71,2.84,9.09,9.09,0,0,1,.26,1.8.88.88,0,0,1-.94,1H12.34A.9.9,0,0,1,11.4,35,6.55,6.55,0,0,1,13.43,30.22Z"/></svg>