<svg xmlns="http://www.w3.org/2000/svg" xml:space="preserve" fill="currentColor" viewBox="0 0 179.85 179.85"><path fill-rule="evenodd" d="M89.925 0c-3.95 0-7.899.974-11.299 2.924L51.101 18.809l-.008-.014-3.377 1.95.008.013-27.498 15.867c-6.8 3.9-11.301 11.8-11.301 19.6v67.4c0 7.9 4.5 15.7 11.301 19.6l58.4 33.699c6.8 3.9 15.8 3.9 22.6 0l58.4-33.699c6.7-4 11.199-11.8 11.299-19.6v-67.4c0-7.9-4.499-15.7-11.299-19.6L132.083 20.73l.025-.045-3.377-1.951-.027.047-27.479-15.857C97.825.974 93.875 0 89.925 0m-.049 5.15c3.725 0 7.45.924 10.65 2.774l25.824 14.932-17.037 29.477-13.488-7.807c-3.6-2-8.299-2-11.799 0l-13.578 7.809-17.02-29.494L79.225 7.925c3.2-1.85 6.926-2.774 10.65-2.774zm39.875 19.613 25.875 14.961c6.3 3.6 10.6 11 10.6 18.4v29.8h-34.1v-15.6c0-4.1-2.4-8.2-5.9-10.2l-13.516-7.877zm-79.699.03 17.018 29.49-13.543 7.841c-3.5 2-5.9 6.1-5.9 10.2v15.6h-34.1v-29.8c0-7.4 4.299-14.8 10.699-18.4zm-36.525 67.03h34.1v15.702c0 4.1 2.4 8.199 5.9 10.199l13.46 7.843-17.041 29.484-25.818-14.928c-6.3-3.7-10.6-11-10.6-18.4zm118.6 0h34v29.9c0 7.3-4.2 14.7-10.6 18.4l-25.807 14.923-17.018-29.492 13.523-7.83c3.5-2 5.9-6.1 5.9-10.2zm-61.699 35.585 13.498 7.816c3.6 2 8.301 2 11.801 0l13.555-7.797 17.02 29.496-25.773 14.9c-6.4 3.7-14.9 3.7-21.3 0l-25.837-14.938z" clip-rule="evenodd"/></svg>