<?xml version="1.0" encoding="UTF-8"?>
<svg id="Layer_1" xmlns="http://www.w3.org/2000/svg" version="1.1" viewBox="0 0 364.98 123.15">
  <!-- Generator: Adobe Illustrator 30.6.0, SVG Export Plug-In . SVG Version: 2.1.4 Build 109)  -->
  <polygon points="123.44 26.99 133.53 48.71 137.71 48.71 147.8 26.64 147.8 53.43 152.32 53.43 152.32 19.87 146.53 19.87 135.71 43.85 124.71 19.87 118.92 19.87 118.92 53.43 123.44 53.43 123.44 26.99"/>
  <rect x="159.57" y="19.87" width="4.81" height="33.56"/>
  <polygon points="198.21 19.87 193.67 19.87 193.67 46.19 176.44 19.87 171.54 19.87 171.54 53.43 176.07 53.43 176.07 27.11 193.31 53.43 198.21 53.43 198.21 19.87"/>
  <rect x="205.38" y="19.87" width="4.81" height="33.56"/>
  <path d="M235.49,49.36c.98-1.47,1.47-3.22,1.47-5.28,0-1.64-.33-3.07-.98-4.28-.66-1.21-1.66-2.24-3.01-3.07-1.35-.83-3.08-1.52-5.18-2.05l-2.04-.52c-2.08-.56-3.53-1.23-4.36-2.04-.83-.81-1.24-1.92-1.24-3.36,0-1.1.27-2.06.81-2.86s1.4-1.41,2.56-1.83c1.17-.42,2.68-.64,4.56-.64,1.27,0,2.53.08,3.78.26,1.25.17,2.43.43,3.55.78v-4.03c-1.05-.32-2.22-.57-3.52-.74s-2.64-.26-4.02-.26c-4.17,0-7.31.85-9.41,2.55-2.1,1.71-3.15,4.04-3.15,7.02,0,2.46.73,4.45,2.18,5.95,1.45,1.51,3.62,2.63,6.49,3.37l2.04.52c2.25.57,3.83,1.26,4.74,2.07s1.36,1.97,1.36,3.48c0,1.77-.6,3.12-1.81,4.06s-3.13,1.41-5.74,1.41c-.89,0-1.82-.06-2.79-.16-.97-.11-1.95-.26-2.95-.48-1-.21-1.97-.47-2.91-.79v4.04c1.33.45,2.74.8,4.23,1.03,1.49.23,2.95.35,4.39.35h0c2.62,0,4.85-.39,6.7-1.16,1.85-.77,3.26-1.87,4.24-3.34h0Z"/>
  <polygon points="248.44 53.43 253.26 53.43 253.26 23.97 264.26 23.97 264.26 19.87 237.46 19.87 237.46 23.97 248.44 23.97 248.44 53.43"/>
  <polygon points="290.01 49.46 272.91 49.46 272.91 38.21 287.54 38.21 287.54 34.24 272.91 34.24 272.91 23.84 289.79 23.84 289.79 19.87 268.15 19.87 268.15 53.43 290.01 53.43 290.01 49.46"/>
  <path d="M311.85,38.87c2.07-.78,3.64-1.94,4.72-3.47,1.08-1.53,1.62-3.43,1.62-5.7,0-3.51-1.13-6.09-3.37-7.74s-5.64-2.47-10.19-2.47c-1.18,0-2.32.04-3.42.13-1.1.08-2.14.2-3.14.35-1,.16-1.95.32-2.86.5v32.96h4.75v-13.56c.69.04,1.37.09,2.04.12.67.04,1.42.06,2.27.06.45,0,.87-.03,1.31-.04l9.86,13.43h5.4l-10.45-14.1c.51-.14,1-.28,1.46-.46h0ZM301.4,36.22c-.45-.04-.93-.09-1.46-.13v-12.47c.77-.14,1.55-.25,2.34-.32.8-.07,1.71-.11,2.74-.11,2,0,3.63.23,4.89.67,1.26.45,2.19,1.14,2.8,2.11.61.97.91,2.22.91,3.76,0,2.25-.74,3.91-2.22,4.98-1.49,1.07-3.84,1.6-7.08,1.6v-.02h-1.56c-.46,0-.91-.03-1.36-.06h0Z"/>
  <rect x="325.35" y="19.87" width="4.81" height="33.56"/>
  <path d="M363.18,26.86c-1.21-2.53-2.89-4.4-5.07-5.61-2.17-1.2-4.74-1.81-7.64-1.81s-5.44.59-7.61,1.8c-2.17,1.2-3.86,3.07-5.07,5.61-1.21,2.54-1.81,5.81-1.81,9.8s.6,7.26,1.8,9.8c1.2,2.54,2.89,4.41,5.07,5.61s4.72,1.8,7.62,1.8,5.44-.6,7.62-1.81c2.18-1.21,3.87-3.08,5.08-5.61,1.21-2.54,1.81-5.8,1.81-9.79s-.6-7.26-1.8-9.79h0ZM358.85,44.42c-.78,1.91-1.88,3.3-3.31,4.15-1.43.85-3.12,1.28-5.07,1.28h.01c-1.93,0-3.61-.42-5.04-1.27-1.43-.86-2.54-2.26-3.32-4.21s-1.18-4.66-1.18-7.85.4-5.74,1.18-7.65,1.89-3.3,3.32-4.14c1.42-.84,3.11-1.27,5.04-1.27s3.62.42,5.04,1.29c1.42.87,2.53,2.27,3.32,4.21s1.18,4.66,1.18,7.83-.39,5.72-1.17,7.63Z"/>
  <path d="M125.84,64.26l-10.41,33.56h8.44l2.41-8.28h11.76l2.42,8.28h8.53l-10.38-33.56h-12.77,0ZM128.28,82.69l3.88-13.3,3.89,13.3h-7.77Z"/>
  <path d="M172.8,80.53c.95-.28,1.79-.69,2.52-1.28.87-.69,1.54-1.54,2.02-2.56.48-1.02.72-2.14.72-3.38,0-2.11-.51-3.87-1.54-5.28-1.03-1.41-2.63-2.47-4.82-3.17-2.18-.69-5-1.04-8.47-1.04-1.24,0-2.52.06-3.85.16-1.33.11-2.64.25-3.92.44-1.28.19-2.47.41-3.54.65v32.46c.98.14,2.05.27,3.23.37s2.34.18,3.51.25c1.16.07,2.21.1,3.15.1h-.02c3.16.01,5.83-.22,8.02-.66,2.18-.45,3.95-1.1,5.29-1.94,1.35-.85,2.33-1.89,2.94-3.12s.92-2.64.92-4.23c0-2.38-.62-4.21-1.88-5.5-1.14-1.17-2.58-1.91-4.28-2.27h0ZM162.36,70.22c.65-.06,1.34-.09,2.07-.09,2.03,0,3.47.28,4.28.87.82.57,1.23,1.51,1.23,2.79,0,.83-.17,1.52-.51,2.06-.34.53-.91.94-1.68,1.21-.78.27-1.83.41-3.14.41h-4.17v-6.98c.62-.12,1.26-.21,1.92-.27h0ZM170.37,90.2c-.41.59-1.1,1.04-2.09,1.33-.98.29-2.33.44-4.06.44v.02c-.61,0-1.22-.01-1.81-.03-.59-.03-1.24-.07-1.97-.13v-7.9h4.9c2.04,0,3.49.32,4.35.95s1.29,1.65,1.29,3.06c0,.91-.2,1.67-.61,2.26Z"/>
  <rect x="182.74" y="64.26" width="8.71" height="33.56"/>
  <polygon points="205.49 84.12 219.14 84.12 219.14 77.23 205.49 77.23 205.49 71.15 221.48 71.15 221.48 64.26 196.9 64.26 196.9 97.82 221.71 97.82 221.71 90.93 205.49 90.93 205.49 84.12"/>
  <path d="M250.39,81.07c1.17-1.66,1.76-3.71,1.76-6.16,0-3.79-1.26-6.59-3.79-8.39s-6.29-2.7-11.26-2.7c-1.25,0-2.53.06-3.82.16-1.28.11-2.55.25-3.78.44s-2.38.41-3.44.65v32.75h8.55v-11.83c.53.01,1.04.03,1.54.05.46.03.95.03,1.46.03l7.95,11.75h9.46l-9.13-13.24c1.9-.83,3.42-1.98,4.5-3.51ZM234.61,70.47c.51-.11,1.06-.19,1.63-.25.58-.05,1.19-.08,1.84-.08,1.31,0,2.41.17,3.29.5.87.33,1.53.85,1.98,1.57.44.71.67,1.62.67,2.72,0,1.7-.51,2.9-1.52,3.63-1.02.73-2.54,1.09-4.56,1.09v-.02h-1.14c-.37,0-.73-.02-1.09-.05-.35-.03-.72-.07-1.1-.11v-9h0Z"/>
  <polygon points="253.12 71.44 263.48 71.44 263.48 97.82 263.49 97.82 272.22 97.82 272.22 71.44 282.58 71.44 282.58 64.25 253.12 64.25 253.12 71.44"/>
  <path d="M307.9,65.72c-2.47-1.27-5.39-1.91-8.72-1.91s-6.23.63-8.7,1.9-4.39,3.19-5.75,5.74-2.04,5.76-2.04,9.59.68,7.03,2.04,9.59,3.27,4.47,5.75,5.74c2.47,1.27,5.37,1.9,8.7,1.9s6.23-.64,8.71-1.91c2.48-1.28,4.4-3.2,5.76-5.75,1.36-2.55,2.04-5.74,2.04-9.57s-.68-7.02-2.04-9.57-3.28-4.47-5.75-5.75h0ZM305.86,86.98c-.58,1.49-1.45,2.58-2.57,3.27s-2.5,1.04-4.11,1.04-2.97-.34-4.09-1.04c-1.13-.69-1.99-1.8-2.59-3.33s-.9-3.54-.9-6.04.3-4.32.91-5.8c.6-1.49,1.46-2.57,2.59-3.26,1.12-.69,2.49-1.03,4.07-1.03s2.95.35,4.08,1.05,2,1.82,2.6,3.35c.6,1.52.9,3.64.9,6.01s-.3,4.29-.89,5.78Z"/>
  <path d="M74.03,0L0,25.35v85.24l2.32-.8s2.94-1.01,7.63-2.61v9.91l74.03-25.35V26.01l-3.51,1.22v62L13.46,112.17v-6.19c19.69-6.73,58.75-20.08,60.57-20.7l-3.5-2.51c-1.78.61-37.61,12.85-57.07,19.5V33.73l51.46-17v-3.7L9.95,31.85v71.62c-2.69.92-4.91,1.68-6.44,2.2V27.86L70.52,4.92v15.99l-50.68,17.35v55.9l3.51-1.22v-52.17l47.17-16.15v51.24l3.51,2.52V23.42l16.34-5.59v77.81l-69.29,23.7-.27,3.81,73.07-25V12.91l-19.85,6.8s0-19.71,0-19.71Z"/>
</svg>